<svg xmlns="http://www.w3.org/2000/svg" viewBox="1.019 1 16.01 15.04">
  <path d="M5 3C5.3333 3.6667 5.6667 4.3333 5.5 5.5 5 6 4 6.5 2.151 6.77 4 8 4 8 4 9 4 9 4 9 4 9 4 10 3 11 2.019 11.54 3.0127 11.36 4 10 5 11 6 12 5 12.3333 5 13 6 12 6 12 8 12 9 12 9 13 10.203 15.041 10 13 11 11 12 10.5 13 10 14 10 16.024 10.84 15 10 14 9 14.273 7.339 15 6 14.7577 6.4463 15 6 13 6 13 6 12 5 12 4 12 3 13 2 12 3 11 4 9 4 7 4 6.3333 3.3333 5 3" stroke="#000000" stroke-linejoin="round" stroke-linecap="round" stroke-width="1" fill="none"/>
</svg>