<svg width="210" height="28" viewBox="0 0 210 28" fill="none" xmlns="http://www.w3.org/2000/svg">
<path d="M0.921395 21.3617C0.802168 21.5894 0.663219 21.8274 0.52427 22.0611L0.340499 22.3683C0.255337 22.509 0.173761 22.6455 0.0993559 22.7745C-0.106826 23.1597 0.0168831 23.6735 0.387114 23.9302L5.7344 27.3551C6.14587 27.6117 6.63891 27.4836 6.88633 27.0554C7.09162 26.6702 7.37937 26.1989 7.66713 25.6852C9.80605 22.0466 11.9037 22.4749 15.771 24.4014L21.077 27.0124C21.4876 27.2265 21.9815 27.0124 22.1877 26.5846L24.7372 20.5913C24.9022 20.1631 24.7372 19.6493 24.3266 19.4782L23.5037 19.0705L22.7901 18.7199C21.6705 18.1701 20.2819 17.4881 18.9794 16.8237C11.7397 13.2278 5.61069 13.4419 0.921395 21.3617Z" fill="white"/>
<path d="M25.7253 5.95044C25.4779 6.37867 25.1489 6.89245 24.9024 7.36322C20.2131 15.2831 14.0841 15.4972 6.88655 11.8582C5.58581 11.1953 4.1999 10.5146 3.08114 9.96578C2.46618 9.66378 1.9328 9.40151 1.53926 9.20423C1.38238 9.13924 1.26136 9.02471 1.18068 8.88399C1.0498 8.65445 1.0256 8.35619 1.12779 8.09111L3.67817 2.0978C3.88346 1.66957 4.3774 1.45546 4.78797 1.66957L10.0537 4.32402C13.92 6.25011 16.0177 6.67834 18.1566 3.0398C18.4444 2.52602 18.7322 2.05479 18.9383 1.66957C19.1849 1.24181 19.6788 1.11325 20.0903 1.3699L25.4367 4.79479C25.8481 5.05145 25.9718 5.56523 25.7253 5.95044Z" fill="white"/>
<path d="M107.168 10.9165V7.91987H102.438V5.99332C102.438 4.28087 103.384 3.12522 105.317 3.12522C106.058 3.12522 106.757 3.16776 107.291 3.29632V0.299666L107.159 0.267876L107.14 0.263668L107.105 0.255254C106.994 0.228139 106.875 0.199154 106.751 0.171572C106.656 0.150534 106.556 0.130432 106.452 0.111732C106.312 0.086487 106.164 0.0635796 106.005 0.0453472C105.763 0.0172974 105.495 0 105.194 0C101.327 0 99.4358 2.35432 99.4358 5.86475V7.91987H96.5151V10.9165H99.4358V26.7558H102.479V10.9165H107.168Z" fill="white"/>
<path d="M49.0888 27.098C51.5567 27.098 53.9018 26.6703 55.3818 25.6427H55.4231V22.3889C54.4701 22.8849 53.4545 23.2898 52.3151 23.553C51.3882 23.7671 50.3788 23.8877 49.2537 23.8877C43.6178 23.8877 40.1629 20.1202 40.1629 14.4265C40.1629 8.73285 43.4538 4.8802 49.0476 4.8802C51.8032 4.8802 53.6956 5.47954 55.3818 6.59265V3.29632C53.6956 2.05465 51.3514 1.58388 49.0476 1.58388C41.2736 1.58388 36.8721 6.8493 36.8721 14.384C36.8721 22.2178 41.2736 27.098 49.0888 27.098Z" fill="white"/>
<path fill-rule="evenodd" clip-rule="evenodd" d="M66.2826 7.53419C60.8528 7.53419 57.6857 11.644 57.6857 17.2951C57.6857 22.9457 60.8528 27.098 66.2826 27.141C71.6702 27.141 74.8382 22.9457 74.8382 17.2951C74.8382 11.644 71.6702 7.53419 66.2826 7.53419ZM66.3238 24.1014C62.4162 24.1014 60.7291 20.8911 60.7291 17.2951C60.7291 13.6991 62.4162 10.5308 66.3238 10.5308C70.1902 10.5308 71.8352 13.7416 71.8352 17.2951C71.8352 20.848 70.1489 24.1014 66.3238 24.1014Z" fill="white"/>
<path d="M93.7998 26.7558H90.7152V15.3685C90.7152 11.9866 89.3992 10.4883 86.4373 10.4883C83.558 10.4883 81.5428 12.5004 81.5428 16.31V26.7983H78.4169V7.96241H81.5428V11.0446C82.6947 8.81887 84.8336 7.5772 87.2603 7.5772C91.4144 7.5772 93.7998 10.5739 93.7998 15.7537V26.7558Z" fill="white"/>
<path d="M115.353 26.8414C112.392 26.8414 110.5 25.3856 110.5 21.9181V0.0430098H113.626V21.5329C113.626 23.2454 114.696 23.8447 116.053 23.8447C116.382 23.8447 116.587 23.8447 116.959 23.8017V26.7128C116.845 26.7521 116.67 26.7825 116.434 26.804C116.158 26.8287 115.798 26.8414 115.353 26.8414Z" fill="white"/>
<path d="M122.716 7.91987H119.632V18.9645C119.632 24.1444 122.017 27.141 126.171 27.141C128.598 27.141 130.737 25.8994 131.889 23.6736V26.7558H135.015V7.91987H131.889V18.3652C131.889 22.1753 129.874 24.1869 126.994 24.1869C124.032 24.1869 122.716 22.6886 122.716 19.3067V7.91987Z" fill="white"/>
<path fill-rule="evenodd" clip-rule="evenodd" d="M148.342 27.098C141.555 27.098 138.593 23.0313 138.593 17.2521C138.593 11.5584 141.638 7.49164 147.149 7.49164C152.744 7.49164 154.964 11.5159 154.964 17.2521V18.7074H141.76C142.214 21.9181 144.187 23.9733 148.465 23.9733C150.563 23.9733 152.332 23.545 153.977 22.9457V25.9424C152.456 26.7984 150.193 27.098 148.342 27.098ZM141.72 15.9678H151.838C151.674 12.4574 150.152 10.4883 147.026 10.4883C143.694 10.4883 142.048 12.6715 141.72 15.9678Z" fill="white"/>
<path d="M170.924 26.7558H174.01V15.7537C174.01 10.5739 171.623 7.5772 167.47 7.5772C165.042 7.5772 162.903 8.81887 161.751 11.0446V7.96241H158.626V26.7983H161.751V16.31C161.751 12.5004 163.767 10.4883 166.647 10.4883C169.608 10.4883 170.924 11.9866 170.924 15.3685V26.7558Z" fill="white"/>
<path d="M191.162 26.242C190.092 26.8414 188.405 27.098 186.76 27.098C180.302 27.098 177.299 23.0313 177.299 17.2521C177.299 11.5584 180.302 7.49164 186.76 7.49164C188.405 7.49164 189.64 7.70576 191.079 8.39064V11.3873C189.928 10.8305 188.694 10.4883 187.007 10.4883C182.318 10.4883 180.385 13.5705 180.385 17.2521C180.385 20.9336 182.359 24.0158 187.089 24.0158C188.202 24.0158 189.061 23.9232 189.812 23.7559C190.31 23.6451 190.76 23.5016 191.203 23.3309V26.242H191.162Z" fill="white"/>
<path fill-rule="evenodd" clip-rule="evenodd" d="M193.63 17.2521C193.63 23.0313 196.591 27.098 203.377 27.098C205.23 27.098 207.491 26.7984 209.013 25.9424V22.9457C207.368 23.545 205.599 23.9733 203.501 23.9733C199.223 23.9733 197.248 21.9181 196.797 18.7074H210V17.2521C210 11.5159 207.779 7.49164 202.185 7.49164C196.673 7.49164 193.63 11.5584 193.63 17.2521ZM206.874 15.9678H196.755C197.084 12.6715 198.73 10.4883 202.061 10.4883C205.188 10.4883 206.71 12.4574 206.874 15.9678Z" fill="white"/>
</svg>
