<svg width="39" height="39" viewBox="0 0 39 39" fill="none" xmlns="http://www.w3.org/2000/svg">
<g clip-path="url(#clip0_661_5918)">
<path fill-rule="evenodd" clip-rule="evenodd" d="M22.7511 14.4335C22.8069 14.0446 22.87 13.7853 22.9416 13.7137C23.3987 13.2566 24.5421 12.9998 25.1885 12.9998C25.835 12.9998 26.455 13.2566 26.9121 13.7137C27.3692 14.1709 27.626 14.7908 27.626 15.4373V18.6279C27.6413 18.003 27.8962 17.407 28.3392 16.9639C28.7964 16.5068 29.4163 16.25 30.0628 16.25C30.7093 16.25 31.3293 16.5068 31.7864 16.9639C32.2435 17.421 32.5003 18.041 32.5003 18.6875V26C32.5003 28.5859 31.4731 31.0658 29.6446 32.8943C27.8161 34.7228 25.3362 35.75 22.7503 35.75H20.8005C17.5505 35.75 15.6007 35.1 13.6506 33.8C11.7005 32.5 10.5631 30.875 9.42545 28.6C7.83529 25.4202 6.50046 17.55 13 17.875L13 18.9638L13 20.15L13.0011 20.1499V15.4373C13.0011 14.7908 13.258 14.1709 13.7151 13.7137C14.1722 13.2566 14.7922 12.9998 15.4386 12.9998C16.0851 12.9998 16.7051 13.2566 17.1622 13.7137C17.6193 14.1709 17.8761 14.7908 17.8761 15.4373V13.8125C17.8761 13.4924 17.9392 13.1754 18.0617 12.8797C18.1842 12.584 18.3637 12.3153 18.5901 12.0889C18.8164 11.8626 19.0851 11.683 19.3809 11.5605C19.6766 11.438 19.9935 11.375 20.3136 11.375C20.6337 11.375 20.9507 11.438 21.2464 11.5605C21.5422 11.683 21.8109 11.8626 22.0372 12.0889C22.2636 12.3153 22.4431 12.584 22.5656 12.8797C22.6881 13.1754 22.7511 13.4924 22.7511 13.8125V14.4335Z" fill="white"/>
<path d="M27.6252 18.6875C27.6252 18.041 27.882 17.421 28.3391 16.9639C28.7962 16.5068 29.4162 16.25 30.0627 16.25C30.7091 16.25 31.3291 16.5068 31.7862 16.9639C32.2434 17.421 32.5002 18.041 32.5002 18.6875V26C32.5002 28.5859 31.4729 31.0658 29.6445 32.8943C27.816 34.7228 25.336 35.75 22.7502 35.75H20.8003C17.5503 35.75 15.6006 35.1 13.6505 33.8C11.7003 32.5 10.563 30.875 9.42531 28.6C7.83515 25.4202 6.50032 17.55 12.9999 17.875C12.9999 19.5035 12.9996 18.525 12.9999 20.15" stroke="#0A0D14" stroke-width="3.25" stroke-linecap="round" stroke-linejoin="round"/>
<path d="M13.001 21.125V15.4375C13.001 14.791 13.2578 14.171 13.7149 13.7139C14.172 13.2568 14.792 13 15.4385 13C16.0849 13 16.7049 13.2568 17.162 13.7139C17.6192 14.171 17.876 14.791 17.876 15.4375V19.5" stroke="#0A0D14" stroke-width="3.25" stroke-linecap="round" stroke-linejoin="round"/>
<path d="M17.876 18.6875V13.8125C17.876 13.4924 17.939 13.1754 18.0615 12.8797C18.184 12.584 18.3636 12.3153 18.5899 12.0889C18.8162 11.8626 19.085 11.683 19.3807 11.5605C19.6764 11.438 19.9934 11.375 20.3135 11.375C20.6336 11.375 20.9505 11.438 21.2463 11.5605C21.542 11.683 21.8107 11.8626 22.037 12.0889C22.2634 12.3153 22.4429 12.584 22.5654 12.8797C22.6879 13.1754 22.751 13.4924 22.751 13.8125V19.5" stroke="#0A0D14" stroke-width="3.25" stroke-linecap="round" stroke-linejoin="round"/>
<path d="M22.751 15.4375C22.751 14.791 23.0078 14.171 23.4649 13.7139C23.922 13.2568 24.542 13 25.1885 13C25.8349 13 26.4549 13.2568 26.912 13.7139C27.3692 14.171 27.626 14.791 27.626 15.4375V19.5" stroke="#0A0D14" stroke-width="3.25" stroke-linecap="round" stroke-linejoin="round"/>
</g>
<defs>
<clipPath id="clip0_661_5918">
<rect width="39" height="39" fill="white"/>
</clipPath>
</defs>
</svg>
