<svg xmlns="http://www.w3.org/2000/svg" viewBox="0 1 26 16">
  <path d="M1 15H25" stroke="#000000" stroke-linecap="round" stroke-linejoin="round" stroke-width="1" fill="none"/>
  <path d="M23 14 25 15 23 16" stroke="#000000" stroke-linecap="round" stroke-linejoin="round" stroke-width="1" fill="none"/>
  <path d="M7 15A1 1 0 007.408 2.006C2 2 0 10 5 13" stroke="#000000" stroke-linecap="round" stroke-linejoin="round" stroke-width="1" fill="none"/>
  <path d="M3 13 5 13 5 11" stroke="#000000" stroke-linecap="round" stroke-linejoin="round" stroke-width="1" fill="none"/>
  <path d="M7.4 4V9L10 6.5" stroke="#000000" stroke-linecap="round" stroke-linejoin="round" stroke-width="1" fill="none"/>
  <path d="M17 2V11H23V2H17" stroke="#000000" stroke-linecap="round" stroke-linejoin="round" stroke-width="1" fill="none"/>
  <path d="M18.4 4 18.6 4" stroke="#000000" stroke-linecap="round" stroke-linejoin="round" stroke-width="1" fill="none"/>
  <path d="M20 4 21.5 4" stroke="#000000" stroke-linecap="round" stroke-linejoin="round" stroke-width="1" fill="none"/>
  <path d="M18.4 6 18.6 6" stroke="#000000" stroke-linecap="round" stroke-linejoin="round" stroke-width="1" fill="none"/>
  <path d="M20 6 21.5 6" stroke="#000000" stroke-linecap="round" stroke-linejoin="round" stroke-width="1" fill="none"/>
  <path d="M18.4 8 18.6 8" stroke="#000000" stroke-linecap="round" stroke-linejoin="round" stroke-width="1" fill="none"/>
  <path d="M20 8 21.5 8" stroke="#000000" stroke-linecap="round" stroke-linejoin="round" stroke-width="1" fill="none"/>
</svg>