<svg xmlns="http://www.w3.org/2000/svg" viewBox="2 1.5 24 25">
  <path d="M3 8V25" stroke="#000000" stroke-linecap="round" stroke-linejoin="round" stroke-width="1.5" fill="none" />
  <path d="M3 25H19" stroke="#000000" stroke-linecap="round" stroke-linejoin="round" stroke-width="1.5" fill="none" />
  <path d="M19 25 25 19" stroke="#000000" stroke-linecap="round" stroke-linejoin="round" stroke-width="1.5" fill="none" />
  <path d="M25 19V3" stroke="#000000" stroke-linecap="round" stroke-linejoin="round" stroke-width="1.5" fill="none" />
  <path d="M25 3H10" stroke="#000000" stroke-linecap="round" stroke-linejoin="round" stroke-width="1.5" fill="none" />
  <path d="M10 3 3 8" stroke="#000000" stroke-linecap="round" stroke-linejoin="round" stroke-width="1.5" fill="none" />
  <path d="M19 8V25" stroke="#000000" stroke-linecap="round" stroke-linejoin="round" stroke-width="1.5" fill="none" />
  <path d="M19 8H3" stroke="#000000" stroke-linecap="round" stroke-linejoin="round" stroke-width="1.5" fill="none" />
  <path d="M19 8 25 3" stroke="#000000" stroke-linecap="round" stroke-linejoin="round" stroke-width="1.5" fill="none" />
  <path d="M5 10V23C6 23.5 7 23.5 8 23V10C7 9.5 6 9.5 5 10L5 11" stroke="#000000" stroke-linecap="round" stroke-linejoin="round" stroke-width="1.5" fill="none" />
  <path d="M8 23C9 23.5 10 23.5 11 23L11 10C10 9.5 9 9.5 8 10" stroke="#000000" stroke-linecap="round" stroke-linejoin="round" stroke-width="1.5" fill="none" />
  <path d="M11 23C12 23.5 13 23.5 14 23V10C13 9.5 12 9.5 11 10" stroke="#000000" stroke-linecap="round" stroke-linejoin="round" stroke-width="1.5" fill="none" />
  <path d="M14 23C15 23.5 16 23.5 17 23V10C16 9.5 15 9.5 14 10" stroke="#000000" stroke-linecap="round" stroke-linejoin="round" stroke-width="1.5" fill="none" />
</svg>