<svg width="258" height="89" viewBox="0 0 258 89" fill="none" xmlns="http://www.w3.org/2000/svg">
<path d="M131.873 13H141V57.2061C141 68.8624 135.57 77 122.976 77C118.239 77 114.542 76.2303 112 75.3506V66.8832C114.773 67.9828 118.124 68.5327 121.474 68.5327C129.215 68.5327 131.873 64.1339 131.873 57.756V13Z" fill="white"/>
<path d="M156.5 10C159.717 10 162 12.0903 162 15.8309C162 19.4614 159.717 21.6618 156.5 21.6618C153.283 21.6618 151 19.5715 151 15.8309C151 12.2004 153.283 10 156.5 10ZM152.453 28.593H160.34V77H152.453V28.593Z" fill="white"/>
<path d="M181.044 77H173V27.8328H181.044V36.4371C183.87 30.6262 188.652 26.4918 198 27.0506V35.3195C187.456 34.2022 181.044 37.4426 181.044 47.9466V77Z" fill="white"/>
<path d="M237.85 68.2007C234.848 74.6591 229.164 78 221.873 78C209.326 78 203 66.976 203 52.4999C203 38.6921 209.648 27 222.838 27C229.701 27 235.063 30.2291 237.85 36.5765V28.0024H246V76.9975H237.85V68.2007ZM224.018 70.2052C231.31 70.2052 237.743 65.417 237.743 54.5044V50.607C237.743 39.6944 231.846 34.906 224.875 34.906C215.761 34.906 211.043 41.1418 211.043 52.4999C211.15 64.3033 215.654 70.2052 224.018 70.2052Z" fill="white"/>
<path d="M87.6489 5H49C49 14.4531 56.8194 22.1475 66.4255 22.1475H73.5746V28.8526C73.5746 38.3056 81.3936 46 91 46V8.2976C91 6.42897 89.5478 5 87.6489 5Z" fill="white"/>
<path d="M68.6487 24H30C30 33.4531 37.8191 41.1474 47.4256 41.1474H54.5744V47.8526C54.5744 57.3057 62.3936 65 72 65V27.2976C72 25.5388 70.5477 24 68.6487 24Z" fill="white"/>
<path d="M49.649 43H11C11 52.6836 18.8192 60.5657 28.4255 60.5657H35.5745V67.4343C35.5745 77.1179 43.3938 85 53 85V46.3779C53 44.4638 51.4362 43 49.649 43Z" fill="white"/>
</svg>
